<svg width="16" height="16" viewBox="0 0 16 16" fill="none" xmlns="http://www.w3.org/2000/svg">
<path d="M0.692893 13.7066C0.302369 14.0971 0.302369 14.7303 0.692893 15.1208C1.08342 15.5114 1.71658 15.5114 2.10711 15.1208L0.692893 13.7066ZM15.4133 1.40039C15.4133 0.848106 14.9656 0.400391 14.4133 0.400391H5.41333C4.86105 0.400391 4.41333 0.848106 4.41333 1.40039C4.41333 1.95268 4.86105 2.40039 5.41333 2.40039H13.4133V10.4004C13.4133 10.9527 13.861 11.4004 14.4133 11.4004C14.9656 11.4004 15.4133 10.9527 15.4133 10.4004V1.40039ZM2.10711 15.1208L15.1204 2.1075L13.7062 0.693284L0.692893 13.7066L2.10711 15.1208Z" fill="black"/>
</svg>
