<svg width="16" height="16" viewBox="0 0 16 16" fill="none" xmlns="http://www.w3.org/2000/svg">
<path d="M0.292893 13.3062C-0.0976311 13.6968 -0.0976311 14.3299 0.292893 14.7204C0.683418 15.111 1.31658 15.111 1.70711 14.7204L0.292893 13.3062ZM15.0133 1C15.0133 0.447715 14.5656 0 14.0133 0H5.01333C4.46105 0 4.01333 0.447715 4.01333 1C4.01333 1.55228 4.46105 2 5.01333 2H13.0133V10C13.0133 10.5523 13.461 11 14.0133 11C14.5656 11 15.0133 10.5523 15.0133 10V1ZM1.70711 14.7204L14.7204 1.70711L13.3062 0.292893L0.292893 13.3062L1.70711 14.7204Z" fill="#FCCF00"/>
</svg>
